<?xml version="1.0" encoding="iso-8859-1"?>
<!-- Generator: Adobe Illustrator 19.0.0, SVG Export Plug-In . SVG Version: 6.00 Build 0)  -->
<svg version="1.1" id="Capa_1" xmlns="http://www.w3.org/2000/svg" xmlns:xlink="http://www.w3.org/1999/xlink" x="0px" y="0px"
	 viewBox="0 0 409.6 409.6" style="enable-background:new 0 0 409.6 409.6;" xml:space="preserve">
<circle style="fill:#45B39C;" cx="204.8" cy="204.8" r="204.8"/>
<path style="opacity:0.1;enable-background:new    ;" d="M409.398,212.799L303.576,106.977l-0.039,0.041
	c-1.551-1.84-3.19-3.629-5.018-5.294c-22.4-20.352-57.088-18.73-77.44,3.67c-9.685,10.624-14.336,24.021-14.208,37.333
	L103.148,276.572c-4.565,5.931-3.584,14.721,1.707,20.992l-11.733,12.673l12.885,11.904l87.106,87.106
	c3.87,0.218,7.762,0.353,11.688,0.353C315.226,409.6,405.19,322.195,409.398,212.799z"/>
<rect x="98.788" y="295.785" transform="matrix(0.734 0.6792 -0.6792 0.734 237.4863 8.7652)" style="fill:#2F4859;" width="17.533" height="23.51"/>
<path style="fill:#E56353;" d="M114.94,307.06l-8.279-7.528c-6.889-6.264-8.574-16.398-3.516-22.956L214.33,133.102
	c14.941-19.352,38.834-26.863,51.947-14.94l15.76,14.33c13.113,11.924,7.901,36.421-9.946,53.13L138.087,308.348
	C132.06,314.025,121.829,313.324,114.94,307.06z"/>
<ellipse style="fill:#64798A;" cx="261.63" cy="142.3" rx="54.827" ry="54.827"/>
<path style="fill:#E1E6E9;" d="M304.133,176.819c-28.689-20.575-54.172-46.681-76.101-77.785c-2.182,1.698-4.266,3.568-6.22,5.637
	c22.113,31.187,47.775,57.426,76.608,78.26c1.303-1.182,2.569-2.426,3.778-3.755C302.89,178.415,303.492,177.607,304.133,176.819z"
	/>
<g>
</g>
<g>
</g>
<g>
</g>
<g>
</g>
<g>
</g>
<g>
</g>
<g>
</g>
<g>
</g>
<g>
</g>
<g>
</g>
<g>
</g>
<g>
</g>
<g>
</g>
<g>
</g>
<g>
</g>
</svg>
