<?xml version="1.0" encoding="iso-8859-1"?>
<!-- Generator: Adobe Illustrator 19.0.0, SVG Export Plug-In . SVG Version: 6.00 Build 0)  -->
<svg version="1.1" id="Capa_1" xmlns="http://www.w3.org/2000/svg" xmlns:xlink="http://www.w3.org/1999/xlink" x="0px" y="0px"
	 viewBox="0 0 384 384" style="enable-background:new 0 0 384 384;" xml:space="preserve">
<circle style="fill:#EFC84A;" cx="192" cy="192" r="192"/>
<path style="opacity:0.1;enable-background:new    ;" d="M381.032,225.469L269.786,114.223c-42.963-42.964-112.6-42.964-155.563,0
	c-42.964,42.964-42.964,112.6,0,155.563l111.246,111.246C304.668,367.102,367.102,304.667,381.032,225.469z"/>
<path style="fill:#D15241;" d="M192,82v220c60.751,0,110-49.248,110-110S252.751,82,192,82z"/>
<path style="fill:#E56353;" d="M82,192c0,60.752,49.249,110,110,110V82C131.249,82,82,131.248,82,192z"/>
<polygon style="fill:#CE412D;" points="123.384,194.826 174.079,144.132 174.079,167.636 260.616,167.636 260.616,222.016 
	174.079,222.016 174.079,245.52 "/>
<polygon style="fill:#FFFFFF;" points="123.384,189.174 174.079,138.48 174.079,161.984 260.616,161.984 260.616,216.364 
	174.079,216.364 174.079,239.868 "/>
<g>
</g>
<g>
</g>
<g>
</g>
<g>
</g>
<g>
</g>
<g>
</g>
<g>
</g>
<g>
</g>
<g>
</g>
<g>
</g>
<g>
</g>
<g>
</g>
<g>
</g>
<g>
</g>
<g>
</g>
</svg>
